<svg xmlns="http://www.w3.org/2000/svg" width="137.491" height="114.367" viewBox="0 0 137.491 114.367"><path d="M135.3,47.8a54.444,54.444,0,0,1-9.48,3.2,29.558,29.558,0,0,0,7.8-12.425h0a1.55,1.55,0,0,0-2.267-1.805h0a54.7,54.7,0,0,1-14.493,5.988,3.694,3.694,0,0,1-.906.113,3.842,3.842,0,0,1-2.538-.969,29.641,29.641,0,0,0-19.613-7.4,31.692,31.692,0,0,0-9.391,1.45A28.717,28.717,0,0,0,65.065,56.632a31.621,31.621,0,0,0-.7,10.915,1.061,1.061,0,0,1-.267.832,1.1,1.1,0,0,1-.818.371c-.035,0-.07,0-.105-.005A77.724,77.724,0,0,1,9.751,40.2h0a1.55,1.55,0,0,0-2.54.2h0a29.676,29.676,0,0,0,4.822,36.031,26.563,26.563,0,0,1-6.761-2.617h0a1.55,1.55,0,0,0-2.3,1.336h0A29.679,29.679,0,0,0,20.283,102.5q-.316.008-.633.007a26.672,26.672,0,0,1-4.994-.476h0a1.55,1.55,0,0,0-1.767,2h0a29.708,29.708,0,0,0,23.466,20.206,54.7,54.7,0,0,1-30.635,9.3l-3.428,0A2.27,2.27,0,0,0,.072,135.24,2.348,2.348,0,0,0,1.2,137.835a81.357,81.357,0,0,0,40.881,11.023,82.473,82.473,0,0,0,34.936-7.411,77.147,77.147,0,0,0,25.562-19.155,83.978,83.978,0,0,0,15.652-26.214,82.81,82.81,0,0,0,5.32-28.691v-.451a5.044,5.044,0,0,1,1.888-3.926,58.588,58.588,0,0,0,11.786-12.936h0A1.55,1.55,0,0,0,135.3,47.8Z" transform="translate(0 -34.491)" fill="#2a2a2a"/></svg>