<svg xmlns="http://www.w3.org/2000/svg" width="128.053" height="128.053" viewBox="0 0 128.053 128.053"><path d="M116.469,0H11.583A11.583,11.583,0,0,0,0,11.583V116.469a11.584,11.584,0,0,0,11.583,11.584H116.469a11.584,11.584,0,0,0,11.584-11.584V11.583A11.583,11.583,0,0,0,116.469,0ZM39.625,110.569a3.371,3.371,0,0,1-3.371,3.371H21.9a3.371,3.371,0,0,1-3.371-3.371V50.418A3.371,3.371,0,0,1,21.9,47.047H36.254a3.371,3.371,0,0,1,3.371,3.371ZM29.079,41.376A13.632,13.632,0,1,1,42.711,27.745,13.632,13.632,0,0,1,29.079,41.376Zm85.534,69.464a3.1,3.1,0,0,1-3.1,3.1h-15.4a3.1,3.1,0,0,1-3.1-3.1V82.626c0-4.209,1.235-18.444-11-18.444-9.49,0-11.414,9.743-11.8,14.116v32.542a3.1,3.1,0,0,1-3.1,3.1H52.225a3.1,3.1,0,0,1-3.1-3.1V50.146a3.1,3.1,0,0,1,3.1-3.1H67.117a3.1,3.1,0,0,1,3.1,3.1v5.248c3.519-5.281,8.748-9.357,19.882-9.357,24.656,0,24.515,23.035,24.515,35.691v29.112Z" fill="#2a2a2a"/></svg>