<svg xmlns="http://www.w3.org/2000/svg" width="137.033" height="137.033" viewBox="0 0 137.033 137.033"><path d="M96.21,0H40.823A40.869,40.869,0,0,0,0,40.823V96.21a40.869,40.869,0,0,0,40.823,40.823H96.21A40.869,40.869,0,0,0,137.033,96.21V40.823A40.869,40.869,0,0,0,96.21,0Zm27.037,96.21A27.037,27.037,0,0,1,96.21,123.247H40.823A27.037,27.037,0,0,1,13.785,96.21V40.823A27.037,27.037,0,0,1,40.823,13.785H96.21a27.037,27.037,0,0,1,27.037,27.037V96.21Z" fill="#2a2a2a"/><path d="M168.441,133a35.441,35.441,0,1,0,35.441,35.441A35.482,35.482,0,0,0,168.441,133Zm0,57.1A21.656,21.656,0,1,1,190.1,168.441,21.656,21.656,0,0,1,168.441,190.1Z" transform="translate(-99.925 -99.925)" fill="#2a2a2a"/><ellipse cx="8.493" cy="8.493" rx="8.493" ry="8.493" transform="translate(95.534 24.848)" fill="#2a2a2a"/></svg>