<svg xmlns="http://www.w3.org/2000/svg" width="137.031" height="137.032" viewBox="0 0 137.031 137.032"><path d="M118.568,0H18.467A18.465,18.465,0,0,0,0,18.465v100.1a18.465,18.465,0,0,0,18.465,18.465H67.836l.084-48.968H55.2a3,3,0,0,1-3-2.99L52.136,69.29a3,3,0,0,1,3-3.013h12.7V51.025c0-17.7,10.81-27.337,26.6-27.337h12.956a3,3,0,0,1,3,3V40a3,3,0,0,1-3,3l-7.951,0c-8.587,0-10.249,4.08-10.249,10.068v13.2h18.868a3,3,0,0,1,2.981,3.355l-1.871,15.784a3,3,0,0,1-2.981,2.649H89.277l-.084,48.968h29.375a18.465,18.465,0,0,0,18.465-18.465V18.465A18.466,18.466,0,0,0,118.568,0Z" transform="translate(-0.002)" fill="#2a2a2a"/></svg>