<svg xmlns="http://www.w3.org/2000/svg" width="90.915" height="90.915" viewBox="0 0 90.915 90.915"><path d="M0,79.192A11.722,11.722,0,0,0,11.723,90.915H79.192A11.722,11.722,0,0,0,90.915,79.192V11.723A11.722,11.722,0,0,0,79.192,0H11.723A11.722,11.722,0,0,0,0,11.723V79.192Z" fill="#563d7c"/><path d="M84.179,72.781V59.906H95.512a17.628,17.628,0,0,1,3.122.27,7.793,7.793,0,0,1,2.66.963,5.139,5.139,0,0,1,1.85,1.927,6.4,6.4,0,0,1,.694,3.161q0,3.469-2.082,5.011a8.7,8.7,0,0,1-5.32,1.542H84.179ZM72.075,50.5v55.046H98.75a28.143,28.143,0,0,0,7.209-.925,19.279,19.279,0,0,0,6.245-2.852,14.05,14.05,0,0,0,4.356-4.973,16.827,16.827,0,0,0-.886-16.036,13.231,13.231,0,0,0-7.594-5.127,13.72,13.72,0,0,0,5.59-4.549,12.058,12.058,0,0,0,1.889-6.939,14.765,14.765,0,0,0-1.272-6.476,10.579,10.579,0,0,0-3.585-4.2,15.473,15.473,0,0,0-5.551-2.274,34.269,34.269,0,0,0-7.17-.694h-25.9Zm12.1,45.64V81.03H97.362a10.2,10.2,0,0,1,6.322,1.812q2.39,1.812,2.39,6.052a7.565,7.565,0,0,1-.733,3.546,5.818,5.818,0,0,1-1.966,2.2,8.326,8.326,0,0,1-2.852,1.157,16.185,16.185,0,0,1-3.392.347Z" transform="translate(-46.479 -32.566)" fill="#fff"/></svg>