<svg xmlns="http://www.w3.org/2000/svg" width="76.747" height="90.915" viewBox="0 0 76.747 90.915"><path d="M3.928,86.133c-1.56,0-2.014-.908-2.014-2.269a12.1,12.1,0,0,1,.127-1.5c.342-2.354,1.176-3.7,3.19-3.7,1.362,0,2.026.609,2.026,1.715v.539H8.609c.015,0,.015-.5.015-.609a3.037,3.037,0,0,0-3.39-3.15c-3.276,0-4.624,1.78-5.12,5.269A8.952,8.952,0,0,0,0,83.8c0,2.057.809,3.927,3.7,3.927a4.627,4.627,0,0,0,4.269-2.391L6.68,84.462a3.03,3.03,0,0,1-2.752,1.67Zm8.865-6.5c-2.624,0-3.758,1.347-4.141,4.027a6.993,6.993,0,0,0-.072.937,2.769,2.769,0,0,0,3.049,3.106c2.624,0,3.774-1.4,4.156-4.043a7.713,7.713,0,0,0,.071-.964,2.743,2.743,0,0,0-3.063-3.063Zm1.092,4.028c-.284,1.944-.893,2.539-2.043,2.539-.921,0-1.375-.383-1.375-1.532a7.1,7.1,0,0,1,.085-1.007c.284-1.929.851-2.524,2.014-2.524.936,0,1.4.383,1.4,1.546a6.569,6.569,0,0,1-.085.979Zm8.568-6.369-.439,2.6c-.028.226-.014.151.072.364a3.133,3.133,0,0,0-1.646-.518c-2.355,0-3.673,1.066-4.1,4.044a5.82,5.82,0,0,0-.071.951,2.674,2.674,0,0,0,2.992,2.98,2.89,2.89,0,0,0,1.986-.452l.141.882h1.362L24.34,77.295Zm-1.347,8.5a3.255,3.255,0,0,1-1.644.468c-1.035,0-1.319-.539-1.319-1.4a8.523,8.523,0,0,1,.1-1.121c.326-2.255,1.049-2.653,1.986-2.653a3,3,0,0,1,1.518.341l-.64,4.368Zm7.376-6.155c-2.6,0-3.815,1.233-4.227,4.027a7.852,7.852,0,0,0-.072.979c0,1.915.979,3.064,3.134,3.064a3.779,3.779,0,0,0,3.589-1.972l-1.433-.582A2.13,2.13,0,0,1,27.532,86.2c-1.049,0-1.475-.282-1.475-1.219a1.384,1.384,0,0,1,.043-.453h5.119c.072-.724.156-1.235.156-1.659,0-1.417-.538-3.235-2.892-3.235Zm.978,3.447H26.34c.313-.724.836-1.844,1.915-1.844A1.156,1.156,0,0,1,29.5,82.566a2.181,2.181,0,0,1-.043.518Zm7.372-3.618L37,78.019H33l-.169,1.447h1.049L32.749,86.7H31.7l-.169,1.447h4L35.7,86.7h-1.05l1.134-7.236Zm8.127,2.171.511-1.447H44.1l-.992.2a3.927,3.927,0,0,0-2.014-.619c-2.029,0-3.759.98-3.759,3.207a2.369,2.369,0,0,0,.5,1.47,1.32,1.32,0,0,0-.794,1.117,1.071,1.071,0,0,0,.255.671,2.712,2.712,0,0,0-1.375,2.351c0,1.916,2,2.324,3.531,2.324,1.929,0,4.227-.441,4.227-2.895,0-.836-.525-1.49-2.042-1.774l-2.737-.511c-.312-.057-.383-.156-.383-.3a.3.3,0,0,1,.341-.326l.185.028a5.6,5.6,0,0,0,1.234.128c1.972,0,3.73-.851,3.73-3.064a2.009,2.009,0,0,0-.2-.865,3.084,3.084,0,0,0,.68.3h.48Zm-3.9,5.871c.538.1.723.3.723.653,0,1.149-1.234,1.291-2.127,1.291-1.362,0-1.872-.326-1.872-1.05a1.742,1.742,0,0,1,.61-1.39Zm-.582-3.715c-.823,0-1.277-.3-1.277-1.007a1.519,1.519,0,0,1,1.674-1.659c.851,0,1.263.355,1.263,1.049A1.479,1.479,0,0,1,40.478,83.792ZM50,79.637a3.9,3.9,0,0,0-2.383,1.084l-.127-.531H45.928l-1.092,7.96h1.886l.823-6.036a4.2,4.2,0,0,1,1.815-.834c.709,0,.965.342.965.994a7.52,7.52,0,0,1-.043.789l-.694,5.088h1.887l.694-5.129c.029-.24.057-.635.057-.862,0-1.349-.638-2.522-2.227-2.522Zm5.81,6.518.014-.195.822-5.771H53.511l-.2,1.447h1.375c-.114,0-.184.127-.2.241l-.568,3.843a6.655,6.655,0,0,0-.042.725,1.536,1.536,0,0,0,1.644,1.7h.965L56.7,86.7h-.609c-.213,0-.284-.377-.284-.547Zm1.219-8.86H55.184c-.114,0-.114-.418-.127-.276L54.8,79.058c-.015.128-.015.408.1.408h1.845c.114,0,.114-.5.127-.625l.256-1.574c.014-.142.014.028-.1.028ZM60.875,86.2c-.467,0-.695-.2-.695-.624l.014-.029.6-3.914h2.156l.652-1.447H60.988L61.427,77l-1.985.635-.355,2.55H57.939l-.2,1.447h1.333c-.127.724-.255.254-.269.4l-.511,3.432a2.093,2.093,0,0,0-.028.411c0,1.348.993,1.852,2.185,1.852a4.063,4.063,0,0,0,2.695-.905l-.88-1.082a2.277,2.277,0,0,1-1.391.463ZM67.8,79.637c-2.6,0-3.815,1.233-4.226,4.027a7.963,7.963,0,0,0-.071.979c0,1.915.979,3.064,3.134,3.064a3.777,3.777,0,0,0,3.589-1.972l-1.432-.582A2.132,2.132,0,0,1,66.845,86.2c-1.049,0-1.475-.282-1.475-1.219a1.374,1.374,0,0,1,.044-.453h5.12c.071-.724.156-1.235.156-1.659,0-1.417-.539-3.235-2.894-3.235Zm.979,3.447h-3.12c.312-.724.836-1.844,1.915-1.844a1.156,1.156,0,0,1,1.248,1.326,2.23,2.23,0,0,1-.043.518Zm7.134-3.448a2.956,2.956,0,0,0-1.958,1l-.113-.446h-1.56l-1.092,7.96h1.9l.836-6.164a3.3,3.3,0,0,1,1.6-.551,7.617,7.617,0,0,1,.978-.012l.243-1.644a4.529,4.529,0,0,0-.838-.141ZM27.743,71.594c-4.293-1.856-8.31-6.572-8.32-11.4-.012-5.261,3.323-9.728,7.47-12.664-.5,1.884-.77,3.607.465,5.291a5,5,0,0,0,5.058,1.914c4.437-.971,4.641-5.849,2.01-8.691-2.6-2.814-5.117-5.993-4.127-10.074a10.5,10.5,0,0,1,3.343-5.332c-1.223,3.214,2.253,6.384,4.543,7.963,3.973,2.74,8.331,4.81,11.984,8.021,3.842,3.375,6.679,7.939,6.107,13.231-.621,5.737-5.18,9.727-10.293,11.741,10.805-2.385,21.97-10.771,22.2-22.754.189-9.859-6.574-17.446-14.951-21.79l-.438-.239a3.567,3.567,0,0,1,.3,1.457,5.1,5.1,0,0,0,.14-.967,4.715,4.715,0,0,1-.153,1.169l.013-.2a4.911,4.911,0,0,1-.62,1.478l.123-.132a5.258,5.258,0,0,1-8.431.5c-3.593-4.617.075-9.6.588-14.485C45.391,9.509,41.548,3.56,36.783,0c2.624,4.245-.833,9.862-3.6,13-2.682,3.044-5.944,5.585-8.905,8.351a74.228,74.228,0,0,0-8.853,9.586C10.2,37.916,6.994,46.693,9.347,55.4s9.887,14.237,18.4,16.2Z" fill="#ee4323"/></svg>