<svg xmlns="http://www.w3.org/2000/svg" width="73.355" height="95.532" viewBox="0 0 73.355 95.532"><path d="M58.505,0H9C7.617,0,6.5,1.117,6.5,3.286v90.54A2.569,2.569,0,0,0,9,95.532H77.359a2.569,2.569,0,0,0,2.5-1.706V22.139c0-1.187-.159-1.569-.438-1.851L59.566.438A1.507,1.507,0,0,0,58.505,0Z" transform="translate(-6.5)" fill="#e9e9e0"/><path d="M37.5.151V20.364H57.713Z" transform="translate(15.384 0.107)" fill="#d9d7ca"/><path d="M77.359,68H9a2.5,2.5,0,0,1-2.5-2.5V39H79.855V65.5A2.5,2.5,0,0,1,77.359,68Z" transform="translate(-6.5 27.531)" fill="#0096e6"/><g transform="translate(17.197 72.945)"><path d="M28.521,58.48a6.363,6.363,0,0,1-2.168,1.4,7.215,7.215,0,0,1-2.612.466,7.053,7.053,0,0,1-2.834-.56,6.346,6.346,0,0,1-2.262-1.656,7.815,7.815,0,0,1-1.517-2.752,13.589,13.589,0,0,1,0-7.637A7.8,7.8,0,0,1,18.645,45a6.47,6.47,0,0,1,2.274-1.668,6.947,6.947,0,0,1,2.822-.571,7.215,7.215,0,0,1,2.612.466,6.363,6.363,0,0,1,2.168,1.4l-1.936,1.726a3.522,3.522,0,0,0-1.295-.979,3.758,3.758,0,0,0-1.481-.3,4.216,4.216,0,0,0-1.645.326,3.523,3.523,0,0,0-1.4,1.107,5.718,5.718,0,0,0-.967,2.018,11.9,11.9,0,0,0-.374,3.031,12.053,12.053,0,0,0,.362,2.985,5.847,5.847,0,0,0,.933,2.018A3.74,3.74,0,0,0,22.072,57.7a3.647,3.647,0,0,0,1.6.362,4.1,4.1,0,0,0,1.575-.3,3.7,3.7,0,0,0,1.341-.979Z" transform="translate(-16.581 -42.76)" fill="#fff"/><path d="M35.765,55.517a4.435,4.435,0,0,1-.386,1.808,4.716,4.716,0,0,1-1.085,1.539,5.2,5.2,0,0,1-1.726,1.061,6.434,6.434,0,0,1-2.332.4c-.374,0-.757-.02-1.155-.058a9.369,9.369,0,0,1-1.2-.2,6.161,6.161,0,0,1-1.155-.386,3.733,3.733,0,0,1-.945-.6l.49-2.006a4.982,4.982,0,0,0,.827.362c.334.116.679.225,1.037.326s.715.183,1.073.246a5.78,5.78,0,0,0,1,.094,3.2,3.2,0,0,0,2.18-.665,2.483,2.483,0,0,0,.757-1.97,1.881,1.881,0,0,0-.536-1.353A5.809,5.809,0,0,0,31.271,53.1q-.8-.455-1.738-.909a10.6,10.6,0,0,1-1.749-1.073,5.6,5.6,0,0,1-1.353-1.457,3.819,3.819,0,0,1-.536-2.1,4.686,4.686,0,0,1,.42-2.028,4.538,4.538,0,0,1,1.131-1.5,5.006,5.006,0,0,1,1.656-.945A6.043,6.043,0,0,1,31.1,42.76a12.233,12.233,0,0,1,2.168.2,4.779,4.779,0,0,1,1.772.641c-.094.2-.2.423-.326.665s-.242.466-.35.676-.2.386-.28.525a2.157,2.157,0,0,1-.14.234,2.817,2.817,0,0,1-.316-.186,2.372,2.372,0,0,0-.5-.234,3.578,3.578,0,0,0-.863-.164,8.157,8.157,0,0,0-1.377.024,2.409,2.409,0,0,0-.887.268,3.07,3.07,0,0,0-.747.548,2.5,2.5,0,0,0-.513.735,1.883,1.883,0,0,0-.186.781,2.11,2.11,0,0,0,.536,1.5,5.258,5.258,0,0,0,1.329,1q.791.432,1.726.839a9.358,9.358,0,0,1,1.738.991,5.008,5.008,0,0,1,1.341,1.457A4.237,4.237,0,0,1,35.765,55.517Z" transform="translate(-10.087 -42.76)" fill="#fff"/><path d="M43.175,55.517a4.435,4.435,0,0,1-.386,1.808A4.716,4.716,0,0,1,41.7,58.864a5.2,5.2,0,0,1-1.726,1.061,6.434,6.434,0,0,1-2.332.4c-.374,0-.757-.02-1.155-.058a9.369,9.369,0,0,1-1.2-.2,6.161,6.161,0,0,1-1.155-.386,3.734,3.734,0,0,1-.945-.6l.49-2.006a4.982,4.982,0,0,0,.827.362c.334.116.679.225,1.037.326s.715.183,1.073.246a5.78,5.78,0,0,0,1,.094,3.2,3.2,0,0,0,2.18-.665,2.483,2.483,0,0,0,.757-1.97,1.881,1.881,0,0,0-.536-1.353A5.808,5.808,0,0,0,38.681,53.1q-.8-.455-1.738-.909a10.6,10.6,0,0,1-1.749-1.073,5.6,5.6,0,0,1-1.353-1.457,3.819,3.819,0,0,1-.536-2.1,4.686,4.686,0,0,1,.42-2.028,4.538,4.538,0,0,1,1.131-1.5,5.006,5.006,0,0,1,1.656-.945,6.043,6.043,0,0,1,1.994-.326,12.233,12.233,0,0,1,2.168.2,4.779,4.779,0,0,1,1.772.641c-.094.2-.2.423-.326.665s-.242.466-.35.676-.2.386-.28.525a2.158,2.158,0,0,1-.14.234,2.817,2.817,0,0,1-.316-.186,2.372,2.372,0,0,0-.5-.234,3.578,3.578,0,0,0-.863-.164,8.157,8.157,0,0,0-1.377.024,2.409,2.409,0,0,0-.887.268,3.07,3.07,0,0,0-.747.548,2.5,2.5,0,0,0-.513.735,1.883,1.883,0,0,0-.186.781,2.11,2.11,0,0,0,.536,1.5,5.258,5.258,0,0,0,1.329,1q.791.432,1.726.839a9.359,9.359,0,0,1,1.738.991,5.008,5.008,0,0,1,1.341,1.457A4.237,4.237,0,0,1,43.175,55.517Z" transform="translate(-4.856 -42.76)" fill="#fff"/></g><g transform="translate(13.647 20.471)"><path d="M23.03,23.941V17.118a1.708,1.708,0,0,1,1.706-1.706,1.706,1.706,0,0,0,0-3.412,5.124,5.124,0,0,0-5.118,5.118v6.824a3.415,3.415,0,0,1-3.412,3.412,1.706,1.706,0,0,0,0,3.412,3.415,3.415,0,0,1,3.412,3.412V41a5.124,5.124,0,0,0,5.118,5.118,1.706,1.706,0,0,0,0-3.412A1.708,1.708,0,0,1,23.03,41V34.177a6.781,6.781,0,0,0-2.358-5.118A6.781,6.781,0,0,0,23.03,23.941Z" transform="translate(-14.5 -12)" fill="#0096e6"/><path d="M43.736,27.353a3.415,3.415,0,0,1-3.412-3.412V17.118A5.124,5.124,0,0,0,35.206,12a1.706,1.706,0,0,0,0,3.412,1.708,1.708,0,0,1,1.706,1.706v6.824a6.781,6.781,0,0,0,2.358,5.118,6.781,6.781,0,0,0-2.358,5.118V41a1.708,1.708,0,0,1-1.706,1.706,1.706,1.706,0,0,0,0,3.412A5.124,5.124,0,0,0,40.324,41V34.177a3.415,3.415,0,0,1,3.412-3.412,1.706,1.706,0,1,0,0-3.412Z" transform="translate(-1.087 -12)" fill="#0096e6"/></g></svg>