<svg xmlns="http://www.w3.org/2000/svg" width="67.681" height="95.532" viewBox="0 0 67.681 95.532"><path d="M68.126,70.766,61.96,139.84l-27.716,7.684L6.6,139.85.445,70.766H68.126Z" transform="translate(-0.445 -51.992)" fill="#e44d26"/><path d="M128,157.293l22.4-6.209,5.269-59.027H128Z" transform="translate(-94.16 -67.634)" fill="#f16529"/><path d="M57.177,132.468H69.163V124H47.917l.2,2.273L50.2,149.617H69.163v-8.473H57.951Zm1.91,21.386H50.581l1.187,13.3,17.356,4.818.039-.011v-8.815l-.037.01-9.436-2.548-.6-6.757Z" transform="translate(-35.323 -91.099)" fill="#ebebeb"/><path d="M24.18,0h4.306V4.254h3.939V0h4.306V12.882H32.425V8.569H28.486v4.314H24.18V0ZM42.393,4.272H38.6V0H50.492V4.272H46.7v8.61H42.394V4.272h0ZM52.379,0h4.49L59.63,4.527,62.389,0h4.492V12.882H62.593V6.5l-2.962,4.58h-.074L56.592,6.5v6.385H52.379ZM69.024,0h4.307V8.624h6.055v4.258H69.024V0Z" transform="translate(-17.883)"/><path d="M127.889,149.617h10.433l-.984,10.989-9.45,2.551v8.815l17.37-4.814.127-1.432,1.991-22.306.207-2.275h-19.7Zm0-17.17v.021h20.466l.17-1.9.386-4.3.2-2.273H127.889v8.452Z" transform="translate(-94.078 -91.099)" fill="#fff"/></svg>