<svg xmlns="http://www.w3.org/2000/svg" width="73.355" height="95.532" viewBox="0 0 73.355 95.532"><path d="M58.5,0H9C7.617,0,6.5,1.117,6.5,3.286v90.54A2.569,2.569,0,0,0,9,95.532H77.359a2.569,2.569,0,0,0,2.5-1.706V22.139c0-1.187-.159-1.569-.438-1.851L59.566.438A1.508,1.508,0,0,0,58.5,0Z" transform="translate(-6.5)" fill="#e9e9e0"/><path d="M37.5.151V20.364H57.713Z" transform="translate(15.384 0.107)" fill="#d9d7ca"/><path d="M77.359,68H9a2.5,2.5,0,0,1-2.5-2.5V39H79.855V65.5A2.5,2.5,0,0,1,77.359,68Z" transform="translate(-6.5 27.531)" fill="#eeaf4b"/><g transform="translate(22.783 72.874)"><path d="M30.374,42.72V56.108a4.281,4.281,0,0,1-.444,2.04,3.669,3.669,0,0,1-1.189,1.329,4.739,4.739,0,0,1-1.714.7,9.983,9.983,0,0,1-1.994.2,8.089,8.089,0,0,1-1.2-.106,10.257,10.257,0,0,1-1.423-.326q-.734-.223-1.411-.5a5.156,5.156,0,0,1-1.143-.629l1.189-1.888a3.482,3.482,0,0,0,.665.338c.288.116.6.225.945.326s.7.189,1.073.268a5.111,5.111,0,0,0,1.049.116,3.587,3.587,0,0,0,1.97-.478,1.887,1.887,0,0,0,.781-1.621V42.718h2.845Z" transform="translate(-19.855 -42.718)" fill="#fff"/><path d="M38.316,55.517a4.435,4.435,0,0,1-.386,1.808,4.716,4.716,0,0,1-1.085,1.539,5.217,5.217,0,0,1-1.726,1.061,6.434,6.434,0,0,1-2.332.4c-.374,0-.757-.02-1.155-.058a9.319,9.319,0,0,1-1.2-.2,6.287,6.287,0,0,1-1.155-.386,3.7,3.7,0,0,1-.945-.6l.49-2.006a4.917,4.917,0,0,0,.827.362c.334.116.679.225,1.037.326a10.463,10.463,0,0,0,1.073.246,5.937,5.937,0,0,0,1,.094,3.2,3.2,0,0,0,2.18-.665,2.483,2.483,0,0,0,.757-1.97,1.888,1.888,0,0,0-.536-1.353A5.808,5.808,0,0,0,33.822,53.1q-.8-.455-1.738-.909a10.531,10.531,0,0,1-1.749-1.073,5.569,5.569,0,0,1-1.353-1.457,3.819,3.819,0,0,1-.536-2.1,4.686,4.686,0,0,1,.42-2.028A4.538,4.538,0,0,1,30,44.031a5.006,5.006,0,0,1,1.656-.945,6.043,6.043,0,0,1,1.994-.326,12.233,12.233,0,0,1,2.168.2,4.779,4.779,0,0,1,1.772.641c-.094.2-.2.423-.326.665s-.242.466-.35.676-.2.386-.28.525a2.158,2.158,0,0,1-.14.234,2.816,2.816,0,0,1-.316-.186,2.414,2.414,0,0,0-.5-.234,3.6,3.6,0,0,0-.863-.164,8.156,8.156,0,0,0-1.377.024,2.409,2.409,0,0,0-.887.268,3.037,3.037,0,0,0-.747.548,2.467,2.467,0,0,0-.513.735,1.877,1.877,0,0,0-.186.781,2.11,2.11,0,0,0,.536,1.5,5.2,5.2,0,0,0,1.329,1c.529.288,1.1.568,1.726.839a9.414,9.414,0,0,1,1.738.991,5.008,5.008,0,0,1,1.341,1.457A4.21,4.21,0,0,1,38.316,55.517Z" transform="translate(-13.872 -42.688)" fill="#fff"/></g><g transform="translate(13.647 20.471)"><path d="M23.03,23.941V17.118a1.708,1.708,0,0,1,1.706-1.706,1.706,1.706,0,0,0,0-3.412,5.124,5.124,0,0,0-5.118,5.118v6.824a3.415,3.415,0,0,1-3.412,3.412,1.706,1.706,0,0,0,0,3.412,3.415,3.415,0,0,1,3.412,3.412V41a5.124,5.124,0,0,0,5.118,5.118,1.706,1.706,0,1,0,0-3.412A1.708,1.708,0,0,1,23.03,41V34.177a6.781,6.781,0,0,0-2.358-5.118A6.781,6.781,0,0,0,23.03,23.941Z" transform="translate(-14.5 -12)" fill="#eeaf4b"/><ellipse cx="2.559" cy="2.559" rx="2.559" ry="2.559" transform="translate(19.618 8.53)" fill="#eeaf4b"/><path d="M43.736,27.353a3.415,3.415,0,0,1-3.412-3.412V17.118A5.124,5.124,0,0,0,35.206,12a1.706,1.706,0,0,0,0,3.412,1.708,1.708,0,0,1,1.706,1.706v6.824a6.781,6.781,0,0,0,2.358,5.118,6.781,6.781,0,0,0-2.358,5.118V41a1.708,1.708,0,0,1-1.706,1.706,1.706,1.706,0,0,0,0,3.412A5.124,5.124,0,0,0,40.324,41V34.177a3.415,3.415,0,0,1,3.412-3.412,1.706,1.706,0,0,0,0-3.412Z" transform="translate(-1.088 -12)" fill="#eeaf4b"/><path d="M28.206,24A1.705,1.705,0,0,0,26.5,25.706v5.118a1.706,1.706,0,0,0,3.412,0V25.706A1.705,1.705,0,0,0,28.206,24Z" transform="translate(-6.029 -3.529)" fill="#eeaf4b"/></g></svg>