<svg xmlns="http://www.w3.org/2000/svg" width="147.303" height="102.098" viewBox="0 0 147.303 102.098"><path d="M-18.458,6.58h147.3v102.1h-147.3Z" transform="translate(18.458 -6.58)" fill="none"/><path d="M32.658,106.49H28.67q-.212-10.1-1.164-18.989H27.47L21.4,106.49H18.362L12.327,87.5h-.035q-.672,8.54-.847,18.989H7.81q.351-12.707,1.764-23.826h4.943l5.753,17.507H20.3l5.788-17.507h4.729q1.554,13.025,1.836,23.826M49.952,88.911q-2.436,13.217-6.425,19.21-3.107,4.614-6.812,4.616a6.7,6.7,0,0,1-2.435-.593v-2.125a11.727,11.727,0,0,0,1.658.106,4.008,4.008,0,0,0,2.79-.954A3.48,3.48,0,0,0,40,106.561a17.372,17.372,0,0,0-.988-4.06l-4.376-13.59h3.918l3.141,10.164a13.716,13.716,0,0,1,.882,4.837,66.394,66.394,0,0,0,3.6-15h3.777v0Z" transform="translate(12.432 -24.033)" fill="#5d87a1"/><path d="M116.327,106.385H105V82.558h3.811v20.894h7.517Zm-14.293.576-4.38-2.162a8.142,8.142,0,0,0,1.094-1.064q2.793-3.28,2.79-9.705,0-11.824-9.282-11.826a8.791,8.791,0,0,0-7.1,3q-2.79,3.283-2.789,9.672,0,6.282,2.47,9.21,2.26,2.648,6.814,2.649a10.979,10.979,0,0,0,3.119-.418l5.7,3.32Zm-14.189-5.343Q86.4,99.289,86.4,94.137q0-9,5.471-9a4.59,4.59,0,0,1,4.2,2.152q1.445,2.331,1.448,7.412,0,9.073-5.471,9.073a4.581,4.581,0,0,1-4.2-2.155m-7.133-1.836a6.321,6.321,0,0,1-2.222,4.977,8.753,8.753,0,0,1-5.962,1.941,11.94,11.94,0,0,1-6.777-2.226l1.024-2.046a11.593,11.593,0,0,0,5.115,1.411,5.373,5.373,0,0,0,3.371-.949,3.236,3.236,0,0,0,1.3-2.646c0-1.416-.987-2.625-2.8-3.639-1.67-.917-5.01-2.834-5.01-2.834A5.7,5.7,0,0,1,66.034,88.7a5.919,5.919,0,0,1,2.028-4.676,7.645,7.645,0,0,1,5.242-1.784,10.869,10.869,0,0,1,6.033,1.765l-.919,2.047a11.665,11.665,0,0,0-4.586-.987,4.085,4.085,0,0,0-2.82.883,2.952,2.952,0,0,0-1.069,2.26c0,1.409,1.008,2.634,2.868,3.667,1.692.919,5.115,2.869,5.115,2.869a5.63,5.63,0,0,1,2.783,5.035" transform="translate(-0.859 -23.927)" fill="#f8981d"/><path d="M125.985,62.742a13.3,13.3,0,0,0-5.585.807c-.432.173-1.12.173-1.18.719.233.231.26.6.463.923a6.689,6.689,0,0,0,1.5,1.754c.6.462,1.209.92,1.844,1.323,1.12.693,2.389,1.1,3.48,1.786.636.4,1.268.921,1.9,1.353.313.23.513.6.919.748v-.088c-.2-.259-.261-.633-.461-.922L128,70.312a13.7,13.7,0,0,0-2.993-2.906c-.922-.635-2.938-1.5-3.311-2.56l-.059-.059a11.468,11.468,0,0,0,1.987-.465c.979-.258,1.873-.2,2.877-.458.462-.116.921-.26,1.385-.4V63.2c-.521-.519-.892-1.208-1.44-1.7a38.331,38.331,0,0,0-4.75-3.541c-.894-.577-2.044-.949-3-1.439-.343-.173-.921-.259-1.123-.547A11.728,11.728,0,0,1,116.4,53.76c-.832-1.582-1.641-3.338-2.359-5.011a31.137,31.137,0,0,0-1.469-3.28A29.036,29.036,0,0,0,101.429,34.7a13.806,13.806,0,0,0-3.683-1.181l-2.16-.114A11.445,11.445,0,0,1,94.262,32.4c-1.643-1.036-5.873-3.28-7.081-.317-.778,1.873,1.151,3.715,1.814,4.665a13.232,13.232,0,0,1,1.466,2.159c.2.489.26,1.009.462,1.526a34.483,34.483,0,0,0,1.5,3.858,13.738,13.738,0,0,0,1.064,1.782c.231.319.633.46.721.98a8.261,8.261,0,0,0-.663,2.158,12.686,12.686,0,0,0,.837,9.673c.459.72,1.555,2.3,3.021,1.7,1.3-.518,1.01-2.158,1.383-3.6.086-.348.029-.576.2-.8v.056c.4.805.807,1.581,1.179,2.389a16.414,16.414,0,0,0,3.744,3.855c.69.521,1.236,1.412,2.1,1.73v-.086h-.057a3.225,3.225,0,0,0-.66-.574,13.979,13.979,0,0,1-1.5-1.727,37.081,37.081,0,0,1-3.223-5.241c-.464-.894-.864-1.871-1.238-2.763-.174-.344-.174-.864-.463-1.037a10.768,10.768,0,0,0-1.38,1.956,16.283,16.283,0,0,0-.808,4.351l-.113.055c-.917-.23-1.236-1.179-1.584-1.984a12.469,12.469,0,0,1-.259-7.688c.2-.6,1.067-2.5.721-3.079-.173-.551-.75-.865-1.066-1.3a11.7,11.7,0,0,1-1.037-1.842c-.69-1.611-1.038-3.4-1.782-5.007a15.509,15.509,0,0,0-1.44-2.219,14.263,14.263,0,0,1-1.586-2.245c-.143-.317-.344-.835-.114-1.179a.458.458,0,0,1,.4-.375c.373-.315,1.439.086,1.812.259a14.586,14.586,0,0,1,2.85,1.439c.4.289.835.836,1.352.98h.606c.919.2,1.956.055,2.821.316a18.532,18.532,0,0,1,4.146,1.985,25.543,25.543,0,0,1,8.979,9.847c.344.661.491,1.267.805,1.957.606,1.412,1.356,2.851,1.958,4.233A18.968,18.968,0,0,0,116.2,57.1c.431.6,2.162.921,2.938,1.238a20.306,20.306,0,0,1,1.986.8c.979.6,1.955,1.3,2.876,1.96.459.345,1.9,1.065,1.985,1.641M96.62,37.725a4.485,4.485,0,0,0-1.178.145v.058H95.5a9.393,9.393,0,0,0,.922,1.181c.232.462.433.919.66,1.38l.055-.057a1.618,1.618,0,0,0,.608-1.439,6.579,6.579,0,0,1-.348-.6c-.17-.288-.543-.432-.776-.663" transform="translate(-5.733 -12.091)" fill="#5d87a1"/><path d="M139.462,112.709h.6V109.79h-.895l-.73,1.992-.793-1.992h-.862v2.919h.563v-2.221h.032l.831,2.221h.429l.828-2.221Zm-4.8,0h.631v-2.424h.826v-.5H133.8v.5h.859l0,2.424Z" transform="translate(-16.468 -30.255)" fill="#f8981d"/></svg>