<svg xmlns="http://www.w3.org/2000/svg" width="169.877" height="88.429" viewBox="0 0 169.877 88.429"><ellipse cx="84.938" cy="44.214" rx="84.938" ry="44.214" fill="#8993be"/><path d="M35.945,76l9.309-47.124H66.778c9.308.582,13.962,5.236,13.962,13.381,0,13.962-11.053,22.107-20.944,21.525H49.326L47,76ZM51.653,55.055,54.562,37.6h7.563c4.072,0,6.981,1.745,6.981,5.236-.581,9.891-5.236,11.636-10.471,12.218H51.653Zm26.925,8.726,9.308-47.123H98.94L96.613,28.875h10.471c9.309.582,12.8,5.236,11.636,11.054l-4.072,23.852H103.012l4.072-21.525c.581-2.909.581-4.654-3.49-4.654H94.868l-5.236,26.18ZM113.9,76l9.308-47.124h21.525c9.309.582,13.963,5.236,13.963,13.381,0,13.962-11.054,22.107-20.944,21.525H127.283L124.956,76Zm15.707-20.943L132.519,37.6h7.563c4.072,0,6.981,1.745,6.981,5.236-.581,9.891-5.236,11.636-10.471,12.218H129.61Z" transform="translate(-12.093 -5.604)" fill="#232531" fill-rule="evenodd"/></svg>