<svg xmlns="http://www.w3.org/2000/svg" xmlns:xlink="http://www.w3.org/1999/xlink" width="151.525" height="90.915" viewBox="0 0 151.525 90.915"><defs><linearGradient id="a" x1="-0.028" y1="0.32" x2="1" y2="0.676" gradientUnits="objectBoundingBox"><stop offset="0" stop-color="#2298bd"/><stop offset="1" stop-color="#0ed7b5"/></linearGradient></defs><path d="M75.762,0q-30.3,0-37.881,30.3Q49.246,15.152,64.4,18.941c5.763,1.441,9.883,5.622,14.443,10.251,7.428,7.54,16.025,16.266,34.8,16.266q30.3,0,37.881-30.3Q140.16,30.3,125.008,26.517c-5.763-1.441-9.883-5.622-14.443-10.251C103.137,8.726,94.54,0,75.762,0ZM37.881,45.457q-30.3,0-37.881,30.3Q11.364,60.61,26.517,64.4C32.28,65.839,36.4,70.02,40.96,74.648c7.428,7.54,16.025,16.266,34.8,16.266q30.3,0,37.881-30.3Q102.279,75.763,87.127,71.974c-5.763-1.441-9.883-5.622-14.443-10.25C65.256,54.184,56.659,45.457,37.881,45.457Z" transform="translate(0 0)" fill="url(#a)"/></svg>